<svg xmlns="http://www.w3.org/2000/svg" viewBox="0 0 90 56.5"><defs><style>.a{fill:#fff;}</style></defs><title>euro-icon-small</title><path class="a" d="M49,30.6a1.48,1.48,0,0,0-1.9.8,5.81,5.81,0,0,1-5.4,3.4c-3.1,0-5.7-2.3-5.7-5V28.3h9.5a1.5,1.5,0,0,0,0-3H36v-2h9.5a1.5,1.5,0,0,0,0-3H36V18.8c0-2.8,2.6-5,5.7-5a5.81,5.81,0,0,1,5.4,3.4A1.43,1.43,0,0,0,49,18a1.36,1.36,0,0,0,.8-1.9,8.61,8.61,0,0,0-8.2-5.3c-4.8,0-8.7,3.6-8.7,8v1.5H31.4a1.5,1.5,0,0,0,0,3H33v2H31.5a1.5,1.5,0,0,0,0,3H33v1.5c0,4.4,3.9,8,8.7,8a8.81,8.81,0,0,0,8.2-5.3A1.48,1.48,0,0,0,49,30.6Z" transform="translate(-1 -1)"/><path class="a" d="M89.5,57.5h-77a1.5,1.5,0,0,1,0-3H88v-42a1.5,1.5,0,0,1,3,0V56A1.47,1.47,0,0,1,89.5,57.5Z" transform="translate(-1 -1)"/><path class="a" d="M84.5,52.5H7.5a1.5,1.5,0,0,1,0-3H83V7.5a1.5,1.5,0,0,1,3,0V51A1.47,1.47,0,0,1,84.5,52.5Z" transform="translate(-1 -1)"/><path class="a" d="M79.5,47.5H2.5A1.54,1.54,0,0,1,1,46V2.5A1.54,1.54,0,0,1,2.5,1h77A1.54,1.54,0,0,1,81,2.5V46A1.47,1.47,0,0,1,79.5,47.5ZM4,44.5H78V4.1H4Z" transform="translate(-1 -1)"/><path class="a" d="M20.5,24.3A20.09,20.09,0,0,1,27.3,9.1H10.5A1.54,1.54,0,0,0,9,10.6V38.1a1.54,1.54,0,0,0,1.5,1.5H27.3A20.47,20.47,0,0,1,20.5,24.3Z" transform="translate(-1 -1)"/><path class="a" d="M71.5,9.1H54.7a20.39,20.39,0,0,1,0,30.4H71.5A1.54,1.54,0,0,0,73,38V10.5A1.45,1.45,0,0,0,71.5,9.1Z" transform="translate(-1 -1)"/></svg>